# xmcd CD database file
# Copyright (C) 1995-1998 Ti Kan
#
# Track frame offsets:
#	182
#	19057
#	36907
#	51982
#	67882
#	99382
#	115732
#	130057
#	165532
#	178357
#	200945
#	215257
#	228757
#	244432
#	258007
#	272182
#
# Disc length: 3852 seconds
#
# Revision: 1
# Processed by: cddbd v1.4b41PL1 Copyright (c) Steve Scherf et al.
# Submitted via: CDex 1.30
#
DISCID=e50f0a10
DTITLE=Damon Davies - ride this train
DYEAR=1996
DGENRE=Blues
TTITLE0=Mailman
TTITLE1=Riding on this train
TTITLE2=Mr Hot and Cold
TTITLE3=Some of these days
TTITLE4=Thats no way to get along
TTITLE5=Stomp Down Rider
TTITLE6=Somebody's gonna steal the show
TTITLE7=Fred's Medley
TTITLE8=Stop that thing
TTITLE9=Shake em on down
TTITLE10=Poor boy long way from home
TTITLE11=Looking in
TTITLE12=Midnight hour blues
TTITLE13=An afternoon visit
TTITLE14=Birthday
TTITLE15=The Others
EXTD=YEAR: 1996  ID3G:   0
EXTT0=
EXTT1=
EXTT2=
EXTT3=
EXTT4=
EXTT5=
EXTT6=
EXTT7=
EXTT8=
EXTT9=
EXTT10=
EXTT11=
EXTT12=
EXTT13=
EXTT14=
EXTT15=
PLAYORDER=
